<svg xmlns="http://www.w3.org/2000/svg" xmlns:xlink="http://www.w3.org/1999/xlink" contentStyleType="text/css" data-diagram-type="SEQUENCE" height="536px" preserveAspectRatio="none" style="width:877px;height:536px;background:#FFFFFF;" version="1.1" viewBox="0 0 877 536" width="877px" zoomAndPan="magnify"><title>Alive Monitoring</title><defs/><g><text fill="#000000" font-family="sans-serif" font-size="14" font-weight="bold" lengthAdjust="spacing" textLength="130.2451" x="374.9468" y="27.9951">Alive Monitoring</text><g><title>Launch Manager</title><rect fill="#FFFFFF" height="95.3984" style="stroke:#FFFFFF;stroke-width:1;" width="10" x="282.5557" y="83.5938"/><line style="stroke:#181818;stroke-width:1;" x1="282.5557" x2="282.5557" y1="83.5938" y2="178.9922"/><line style="stroke:#181818;stroke-width:1;" x1="292.5557" x2="292.5557" y1="83.5938" y2="178.9922"/><line style="stroke:#181818;stroke-width:1;" x1="282.5557" x2="292.5557" y1="83.5938" y2="83.5938"/></g><g><title>Launch Manager</title><rect fill="#FFFFFF" height="135.5313" style="stroke:#FFFFFF;stroke-width:1;" width="10" x="282.5557" y="206.9922"/><line style="stroke:#181818;stroke-width:1;" x1="282.5557" x2="282.5557" y1="206.9922" y2="342.5234"/><line style="stroke:#181818;stroke-width:1;" x1="292.5557" x2="292.5557" y1="206.9922" y2="342.5234"/></g><g><title>Launch Manager</title><rect fill="#FFFFFF" height="120.3984" style="stroke:#FFFFFF;stroke-width:1;" width="10" x="282.5557" y="370.5234"/><line style="stroke:#181818;stroke-width:1;" x1="282.5557" x2="282.5557" y1="370.5234" y2="490.9219"/><line style="stroke:#181818;stroke-width:1;" x1="292.5557" x2="292.5557" y1="370.5234" y2="490.9219"/><line style="stroke:#181818;stroke-width:1;" x1="282.5557" x2="292.5557" y1="490.9219" y2="490.9219"/></g><g><title>SCORE Application</title><rect fill="#FFFFFF" height="95.3984" style="stroke:#FFFFFF;stroke-width:1;" width="10" x="783.6743" y="83.5938"/><line style="stroke:#181818;stroke-width:1;" x1="783.6743" x2="783.6743" y1="83.5938" y2="178.9922"/><line style="stroke:#181818;stroke-width:1;" x1="793.6743" x2="793.6743" y1="83.5938" y2="178.9922"/><line style="stroke:#181818;stroke-width:1;" x1="783.6743" x2="793.6743" y1="83.5938" y2="83.5938"/></g><g><title>SCORE Application</title><rect fill="#FFFFFF" height="135.5313" style="stroke:#FFFFFF;stroke-width:1;" width="10" x="783.6743" y="206.9922"/><line style="stroke:#181818;stroke-width:1;" x1="783.6743" x2="783.6743" y1="206.9922" y2="342.5234"/><line style="stroke:#181818;stroke-width:1;" x1="793.6743" x2="793.6743" y1="206.9922" y2="342.5234"/></g><g><title>SCORE Application</title><rect fill="#FFFFFF" height="102.3984" style="stroke:#FFFFFF;stroke-width:1;" width="10" x="783.6743" y="370.5234"/><line style="stroke:#181818;stroke-width:1;" x1="783.6743" x2="783.6743" y1="370.5234" y2="472.9219"/><line style="stroke:#181818;stroke-width:1;" x1="793.6743" x2="793.6743" y1="370.5234" y2="472.9219"/><line style="stroke:#181818;stroke-width:1;" x1="783.6743" x2="793.6743" y1="472.9219" y2="472.9219"/></g><rect fill="transparent" height="46.2656" style="stroke:#000000;stroke-width:1.5;" width="658.8389" x="212.2998" y="125.7266"/><rect fill="#FFC0CB" height="88.3984" style="stroke:#000000;stroke-width:1.5;" width="658.8389" x="212.2998" y="377.5234"/><g><title>Launch Manager</title><rect fill="transparent" height="105.3984" width="8" x="283.5557" y="73.5938"/><line style="stroke:#181818;stroke-width:0.5;stroke-dasharray:5.0,5.0;" x1="287.2998" x2="287.2998" y1="73.5938" y2="178.9922"/></g><line style="stroke:#A80036;stroke-width:1;stroke-dasharray:1.0,4.0;" x1="287.2998" x2="287.2998" y1="178.9922" y2="206.9922"/><g><title>Launch Manager</title><rect fill="transparent" height="135.5313" width="8" x="283.5557" y="206.9922"/><line style="stroke:#181818;stroke-width:0.5;stroke-dasharray:5.0,5.0;" x1="287.2998" x2="287.2998" y1="206.9922" y2="342.5234"/></g><line style="stroke:#A80036;stroke-width:1;stroke-dasharray:1.0,4.0;" x1="287.2998" x2="287.2998" y1="342.5234" y2="370.5234"/><g><title>Launch Manager</title><rect fill="transparent" height="130.3984" width="8" x="283.5557" y="370.5234"/><line style="stroke:#181818;stroke-width:0.5;stroke-dasharray:5.0,5.0;" x1="287.2998" x2="287.2998" y1="370.5234" y2="500.9219"/></g><g><title>SCORE Application</title><rect fill="transparent" height="105.3984" width="8" x="784.6743" y="73.5938"/><line style="stroke:#181818;stroke-width:0.5;stroke-dasharray:5.0,5.0;" x1="788.21" x2="788.21" y1="73.5938" y2="178.9922"/></g><line style="stroke:#A80036;stroke-width:1;stroke-dasharray:1.0,4.0;" x1="788.21" x2="788.21" y1="178.9922" y2="206.9922"/><g><title>SCORE Application</title><rect fill="transparent" height="135.5313" width="8" x="784.6743" y="206.9922"/><line style="stroke:#181818;stroke-width:0.5;stroke-dasharray:5.0,5.0;" x1="788.21" x2="788.21" y1="206.9922" y2="342.5234"/></g><line style="stroke:#A80036;stroke-width:1;stroke-dasharray:1.0,4.0;" x1="788.21" x2="788.21" y1="342.5234" y2="370.5234"/><g><title>SCORE Application</title><rect fill="transparent" height="130.3984" width="8" x="784.6743" y="370.5234"/><line style="stroke:#181818;stroke-width:0.5;stroke-dasharray:5.0,5.0;" x1="788.21" x2="788.21" y1="370.5234" y2="500.9219"/></g><rect fill="#E2E2F0" height="30.2969" rx="2.5" ry="2.5" style="stroke:#181818;stroke-width:0.5;" width="130.5117" x="222.2998" y="42.2969"/><text fill="#000000" font-family="sans-serif" font-size="14" lengthAdjust="spacing" textLength="116.5117" x="229.2998" y="62.292">Launch Manager</text><rect fill="#E2E2F0" height="30.2969" rx="2.5" ry="2.5" style="stroke:#181818;stroke-width:0.5;" width="130.5117" x="222.2998" y="499.9219"/><text fill="#000000" font-family="sans-serif" font-size="14" lengthAdjust="spacing" textLength="116.5117" x="229.2998" y="519.917">Launch Manager</text><rect fill="#E2E2F0" height="30.2969" rx="2.5" ry="2.5" style="stroke:#181818;stroke-width:0.5;" width="144.9287" x="716.21" y="42.2969"/><text fill="#000000" font-family="sans-serif" font-size="14" lengthAdjust="spacing" textLength="130.9287" x="723.21" y="62.292">SCORE Application</text><rect fill="#E2E2F0" height="30.2969" rx="2.5" ry="2.5" style="stroke:#181818;stroke-width:0.5;" width="144.9287" x="716.21" y="499.9219"/><text fill="#000000" font-family="sans-serif" font-size="14" lengthAdjust="spacing" textLength="130.9287" x="723.21" y="519.917">SCORE Application</text><g><title>Launch Manager</title><rect fill="#FFFFFF" height="95.3984" style="stroke:#FFFFFF;stroke-width:1;" width="10" x="282.5557" y="83.5938"/><line style="stroke:#181818;stroke-width:1;" x1="282.5557" x2="282.5557" y1="83.5938" y2="178.9922"/><line style="stroke:#181818;stroke-width:1;" x1="292.5557" x2="292.5557" y1="83.5938" y2="178.9922"/><line style="stroke:#181818;stroke-width:1;" x1="282.5557" x2="292.5557" y1="83.5938" y2="83.5938"/></g><g><title>Launch Manager</title><rect fill="#FFFFFF" height="135.5313" style="stroke:#FFFFFF;stroke-width:1;" width="10" x="282.5557" y="206.9922"/><line style="stroke:#181818;stroke-width:1;" x1="282.5557" x2="282.5557" y1="206.9922" y2="342.5234"/><line style="stroke:#181818;stroke-width:1;" x1="292.5557" x2="292.5557" y1="206.9922" y2="342.5234"/></g><g><title>Launch Manager</title><rect fill="#FFFFFF" height="120.3984" style="stroke:#FFFFFF;stroke-width:1;" width="10" x="282.5557" y="370.5234"/><line style="stroke:#181818;stroke-width:1;" x1="282.5557" x2="282.5557" y1="370.5234" y2="490.9219"/><line style="stroke:#181818;stroke-width:1;" x1="292.5557" x2="292.5557" y1="370.5234" y2="490.9219"/><line style="stroke:#181818;stroke-width:1;" x1="282.5557" x2="292.5557" y1="490.9219" y2="490.9219"/></g><g><title>SCORE Application</title><rect fill="#FFFFFF" height="95.3984" style="stroke:#FFFFFF;stroke-width:1;" width="10" x="783.6743" y="83.5938"/><line style="stroke:#181818;stroke-width:1;" x1="783.6743" x2="783.6743" y1="83.5938" y2="178.9922"/><line style="stroke:#181818;stroke-width:1;" x1="793.6743" x2="793.6743" y1="83.5938" y2="178.9922"/><line style="stroke:#181818;stroke-width:1;" x1="783.6743" x2="793.6743" y1="83.5938" y2="83.5938"/></g><g><title>SCORE Application</title><rect fill="#FFFFFF" height="135.5313" style="stroke:#FFFFFF;stroke-width:1;" width="10" x="783.6743" y="206.9922"/><line style="stroke:#181818;stroke-width:1;" x1="783.6743" x2="783.6743" y1="206.9922" y2="342.5234"/><line style="stroke:#181818;stroke-width:1;" x1="793.6743" x2="793.6743" y1="206.9922" y2="342.5234"/></g><g><title>SCORE Application</title><rect fill="#FFFFFF" height="102.3984" style="stroke:#FFFFFF;stroke-width:1;" width="10" x="783.6743" y="370.5234"/><line style="stroke:#181818;stroke-width:1;" x1="783.6743" x2="783.6743" y1="370.5234" y2="472.9219"/><line style="stroke:#181818;stroke-width:1;" x1="793.6743" x2="793.6743" y1="370.5234" y2="472.9219"/><line style="stroke:#181818;stroke-width:1;" x1="783.6743" x2="793.6743" y1="472.9219" y2="472.9219"/></g><path d="M221,88.5938 L221,113.5938 L854,113.5938 L854,98.5938 L844,88.5938 L221,88.5938 " fill="#FEFFDD" style="stroke:#181818;stroke-width:0.5;"/><path d="M844,88.5938 L844,98.5938 L854,98.5938 L844,88.5938 " fill="#FEFFDD" style="stroke:#181818;stroke-width:0.5;"/><text fill="#000000" font-family="sans-serif" font-size="13" lengthAdjust="spacing" textLength="422.5698" x="322.1345" y="105.6606">Application is already running and alive supervision is successful</text><path d="M212.2998,125.7266 L288.9238,125.7266 L288.9238,132.8594 L278.9238,142.8594 L212.2998,142.8594 L212.2998,125.7266 " fill="#EEEEEE" style="stroke:#000000;stroke-width:1.5;"/><rect fill="transparent" height="46.2656" style="stroke:#000000;stroke-width:1.5;" width="658.8389" x="212.2998" y="125.7266"/><text fill="#000000" font-family="sans-serif" font-size="13" font-weight="bold" lengthAdjust="spacing" textLength="31.624" x="227.2998" y="138.7935">loop</text><polygon fill="#181818" points="303.5557,159.9922,293.5557,163.9922,303.5557,167.9922,299.5557,163.9922" style="stroke:#181818;stroke-width:1;"/><line style="stroke:#181818;stroke-width:1;" x1="297.5557" x2="782.6743" y1="163.9922" y2="163.9922"/><text fill="#000000" font-family="sans-serif" font-size="13" font-weight="bold" lengthAdjust="spacing" textLength="39.019" x="309.5557" y="158.9263">[001]</text><text fill="#000000" font-family="sans-serif" font-size="13" lengthAdjust="spacing" textLength="85.6299" x="352.5747" y="158.9263">ReportAlive()</text><polygon fill="#181818" points="270.5557,224.125,280.5557,228.125,270.5557,232.125,274.5557,228.125" style="stroke:#181818;stroke-width:1;"/><line style="stroke:#181818;stroke-width:1;" x1="0" x2="276.5557" y1="228.125" y2="228.125"/><text fill="#000000" font-family="sans-serif" font-size="13" font-weight="bold" lengthAdjust="spacing" textLength="39.019" x="7" y="223.0591">[002]</text><text fill="#000000" font-family="sans-serif" font-size="13" lengthAdjust="spacing" textLength="220.5366" x="50.019" y="223.0591">Activate Run Target (RunTarget1)</text><path d="M221,241.125 L221,266.125 L854,266.125 L854,251.125 L844,241.125 L221,241.125 " fill="#FEFFDD" style="stroke:#181818;stroke-width:0.5;"/><path d="M844,241.125 L844,251.125 L854,251.125 L844,241.125 " fill="#FEFFDD" style="stroke:#181818;stroke-width:0.5;"/><text fill="#000000" font-family="sans-serif" font-size="13" lengthAdjust="spacing" textLength="598.146" x="234.3464" y="258.1919">The application is not configured to run as part of the new Run Target and will be shutdown</text><polygon fill="#181818" points="771.6743,288.3906,781.6743,292.3906,771.6743,296.3906,775.6743,292.3906" style="stroke:#181818;stroke-width:1;"/><line style="stroke:#181818;stroke-width:1;" x1="292.5557" x2="777.6743" y1="292.3906" y2="292.3906"/><text fill="#000000" font-family="sans-serif" font-size="13" font-weight="bold" lengthAdjust="spacing" textLength="39.019" x="299.5557" y="287.3247">[003]</text><text fill="#000000" font-family="sans-serif" font-size="13" lengthAdjust="spacing" textLength="58.5635" x="342.5747" y="287.3247">SIGTERM</text><line style="stroke:#181818;stroke-width:1;" x1="292.5557" x2="334.5557" y1="321.5234" y2="321.5234"/><line style="stroke:#181818;stroke-width:1;" x1="334.5557" x2="334.5557" y1="321.5234" y2="334.5234"/><line style="stroke:#181818;stroke-width:1;" x1="293.5557" x2="334.5557" y1="334.5234" y2="334.5234"/><polygon fill="#181818" points="303.5557,330.5234,293.5557,334.5234,303.5557,338.5234,299.5557,334.5234" style="stroke:#181818;stroke-width:1;"/><text fill="#000000" font-family="sans-serif" font-size="13" font-weight="bold" lengthAdjust="spacing" textLength="39.019" x="299.5557" y="316.4575">[004]</text><text fill="#000000" font-family="sans-serif" font-size="13" lengthAdjust="spacing" textLength="424.0996" x="342.5747" y="316.4575">Deactivate Alive Supervision, Start shutdown timeout monitoring</text><path d="M212.2998,377.5234 L276.7427,377.5234 L276.7427,384.6563 L266.7427,394.6563 L212.2998,394.6563 L212.2998,377.5234 " fill="#EEEEEE" style="stroke:#000000;stroke-width:1.5;"/><rect fill="transparent" height="88.3984" style="stroke:#000000;stroke-width:1.5;" width="658.8389" x="212.2998" y="377.5234"/><text fill="#000000" font-family="sans-serif" font-size="13" font-weight="bold" lengthAdjust="spacing" textLength="19.4429" x="227.2998" y="390.5903">alt</text><text fill="#000000" font-family="sans-serif" font-size="11" font-weight="bold" lengthAdjust="spacing" textLength="377.2012" x="291.7427" y="389.7339">[Application did not terminate within the shutdown timeout]</text><line style="stroke:#181818;stroke-width:1;" x1="292.5557" x2="334.5557" y1="415.7891" y2="415.7891"/><line style="stroke:#181818;stroke-width:1;" x1="334.5557" x2="334.5557" y1="415.7891" y2="428.7891"/><line style="stroke:#181818;stroke-width:1;" x1="293.5557" x2="334.5557" y1="428.7891" y2="428.7891"/><polygon fill="#181818" points="303.5557,424.7891,293.5557,428.7891,303.5557,432.7891,299.5557,428.7891" style="stroke:#181818;stroke-width:1;"/><text fill="#000000" font-family="sans-serif" font-size="13" font-weight="bold" lengthAdjust="spacing" textLength="39.019" x="299.5557" y="410.7231">[005]</text><text fill="#000000" font-family="sans-serif" font-size="13" lengthAdjust="spacing" textLength="248.2695" x="342.5747" y="410.7231">Application shutdown timeout expired</text><polygon fill="#181818" points="771.6743,453.9219,781.6743,457.9219,771.6743,461.9219,775.6743,457.9219" style="stroke:#181818;stroke-width:1;"/><line style="stroke:#181818;stroke-width:1;" x1="292.5557" x2="777.6743" y1="457.9219" y2="457.9219"/><text fill="#000000" font-family="sans-serif" font-size="13" font-weight="bold" lengthAdjust="spacing" textLength="39.019" x="299.5557" y="452.856">[006]</text><text fill="#000000" font-family="sans-serif" font-size="13" lengthAdjust="spacing" textLength="49.0039" x="342.5747" y="452.856">SIGKILL</text><line style="stroke:#A80036;stroke-width:2;" x1="779.6743" x2="797.6743" y1="472.9219" y2="490.9219"/><line style="stroke:#A80036;stroke-width:2;" x1="779.6743" x2="797.6743" y1="490.9219" y2="472.9219"/><!--SRC=[TL9DJm8n4BttLqpmWeaIl19ZGfGOucvCW1lnK7O7c5Ycc-uKzDyxBQ8BnZrDfw_pFdQ4n26C7UqHIiyaFX1lZB5HFCVT2WFqxbSFo-5m-DOpfh51gAB6ia2li96hBPIMxGP33smBHNaEcJ- -pYOmRXf7bHNod55wLePAQ6y5qvkVEj-mryhlbReeRt8BzEiC0Mh1ke2s_eGGcLKnMAwrbsoqiS6mf_ORsCQgmhPTHsTGCMcuCSxxdwbm-w14C88PDZv8pg9_dS3630O3OvOdmFWaSnOP5ZPiKA2lzR6yk_vF-cABOC_bAn0gpslQn80rY4z6KZOfFl1h47t3UEXI9Oi7SWvMQd8RfVO7xdXIYIeq6Hh1VFgycCpAxruM_uI_AUUSvhyvtS1S4kzfAWZjq4U1NMSbSXRM2LmrnEzd_wEcB084muuuKHn8jiJPnULGqrNLdVA77JyQqdGkdRrCYoBxLZ76rDXAy9_7rQdnR9KwnwBy0W00]--></g></svg>