<svg xmlns="http://www.w3.org/2000/svg" xmlns:xlink="http://www.w3.org/1999/xlink" contentStyleType="text/css" data-diagram-type="SEQUENCE" height="779px" preserveAspectRatio="none" style="width:1409px;height:779px;background:#FFFFFF;" version="1.1" viewBox="0 0 1409 779" width="1409px" zoomAndPan="magnify"><title>Control Interface - Activate Run Target (Legacy)</title><defs/><g><text fill="#000000" font-family="sans-serif" font-size="14" font-weight="bold" lengthAdjust="spacing" textLength="380.8438" x="521.1892" y="27.9951">Control Interface - Activate Run Target (Legacy)</text><g><title>Launch Manager</title><rect fill="#FFFFFF" height="523.9922" style="stroke:#181818;stroke-width:1;" width="10" x="611.8218" y="211.125"/></g><g><title>DemoApp1</title><rect fill="#FFFFFF" height="339.3281" style="stroke:#181818;stroke-width:1;" width="10" x="1068.4097" y="395.7891"/></g><g><title>DemoApp2</title><rect fill="#FFFFFF" height="251.9297" style="stroke:#181818;stroke-width:1;" width="10" x="1170.2642" y="483.1875"/></g><g><title>Tester</title><rect fill="transparent" height="670.5234" width="8" x="30.1587" y="73.5938"/><line style="stroke:#181818;stroke-width:0.5;stroke-dasharray:5.0,5.0;" x1="34" x2="34" y1="73.5938" y2="744.1172"/></g><g><title>State Manager</title><rect fill="transparent" height="670.5234" width="8" x="315.3276" y="73.5938"/><line style="stroke:#181818;stroke-width:0.5;stroke-dasharray:5.0,5.0;" x1="318.8906" x2="318.8906" y1="73.5938" y2="744.1172"/></g><g><title>Launch Manager</title><rect fill="transparent" height="670.5234" width="8" x="612.8218" y="73.5938"/><line style="stroke:#181818;stroke-width:0.5;stroke-dasharray:5.0,5.0;" x1="616.5659" x2="616.5659" y1="73.5938" y2="744.1172"/></g><g><title>OS (kernel)</title><rect fill="transparent" height="670.5234" width="8" x="966.916" y="73.5938"/><line style="stroke:#181818;stroke-width:0.5;stroke-dasharray:5.0,5.0;" x1="970.3496" x2="970.3496" y1="73.5938" y2="744.1172"/></g><g><title>DemoApp1</title><rect fill="transparent" height="670.5234" width="8" x="1069.4097" y="73.5938"/><line style="stroke:#181818;stroke-width:0.5;stroke-dasharray:5.0,5.0;" x1="1072.4824" x2="1072.4824" y1="73.5938" y2="744.1172"/></g><g><title>DemoApp2</title><rect fill="transparent" height="670.5234" width="8" x="1171.2642" y="73.5938"/><line style="stroke:#181818;stroke-width:0.5;stroke-dasharray:5.0,5.0;" x1="1174.3369" x2="1174.3369" y1="73.5938" y2="744.1172"/></g><rect fill="#E2E2F0" height="30.2969" rx="2.5" ry="2.5" style="stroke:#181818;stroke-width:0.5;" width="58.3174" x="5" y="42.2969"/><text fill="#000000" font-family="sans-serif" font-size="14" lengthAdjust="spacing" textLength="44.3174" x="12" y="62.292">Tester</text><rect fill="#E2E2F0" height="30.2969" rx="2.5" ry="2.5" style="stroke:#181818;stroke-width:0.5;" width="58.3174" x="5" y="743.1172"/><text fill="#000000" font-family="sans-serif" font-size="14" lengthAdjust="spacing" textLength="44.3174" x="12" y="763.1123">Tester</text><rect fill="#E2E2F0" height="30.2969" rx="2.5" ry="2.5" style="stroke:#181818;stroke-width:0.5;" width="116.874" x="260.8906" y="42.2969"/><text fill="#000000" font-family="sans-serif" font-size="14" lengthAdjust="spacing" textLength="102.874" x="267.8906" y="62.292">State Manager</text><rect fill="#E2E2F0" height="30.2969" rx="2.5" ry="2.5" style="stroke:#181818;stroke-width:0.5;" width="116.874" x="260.8906" y="743.1172"/><text fill="#000000" font-family="sans-serif" font-size="14" lengthAdjust="spacing" textLength="102.874" x="267.8906" y="763.1123">State Manager</text><rect fill="#E2E2F0" height="30.2969" rx="2.5" ry="2.5" style="stroke:#181818;stroke-width:0.5;" width="130.5117" x="551.5659" y="42.2969"/><text fill="#000000" font-family="sans-serif" font-size="14" lengthAdjust="spacing" textLength="116.5117" x="558.5659" y="62.292">Launch Manager</text><rect fill="#E2E2F0" height="30.2969" rx="2.5" ry="2.5" style="stroke:#181818;stroke-width:0.5;" width="130.5117" x="551.5659" y="743.1172"/><text fill="#000000" font-family="sans-serif" font-size="14" lengthAdjust="spacing" textLength="116.5117" x="558.5659" y="763.1123">Launch Manager</text><rect fill="#E2E2F0" height="30.2969" rx="2.5" ry="2.5" style="stroke:#181818;stroke-width:0.5;" width="93.1328" x="924.3496" y="42.2969"/><text fill="#000000" font-family="sans-serif" font-size="14" lengthAdjust="spacing" textLength="79.1328" x="931.3496" y="62.292">OS (kernel)</text><rect fill="#E2E2F0" height="30.2969" rx="2.5" ry="2.5" style="stroke:#181818;stroke-width:0.5;" width="93.1328" x="924.3496" y="743.1172"/><text fill="#000000" font-family="sans-serif" font-size="14" lengthAdjust="spacing" textLength="79.1328" x="931.3496" y="763.1123">OS (kernel)</text><rect fill="#E2E2F0" height="30.2969" rx="2.5" ry="2.5" style="stroke:#181818;stroke-width:0.5;" width="91.8545" x="1027.4824" y="42.2969"/><text fill="#000000" font-family="sans-serif" font-size="14" lengthAdjust="spacing" textLength="77.8545" x="1034.4824" y="62.292">DemoApp1</text><rect fill="#E2E2F0" height="30.2969" rx="2.5" ry="2.5" style="stroke:#181818;stroke-width:0.5;" width="91.8545" x="1027.4824" y="743.1172"/><text fill="#000000" font-family="sans-serif" font-size="14" lengthAdjust="spacing" textLength="77.8545" x="1034.4824" y="763.1123">DemoApp1</text><rect fill="#E2E2F0" height="30.2969" rx="2.5" ry="2.5" style="stroke:#181818;stroke-width:0.5;" width="91.8545" x="1129.3369" y="42.2969"/><text fill="#000000" font-family="sans-serif" font-size="14" lengthAdjust="spacing" textLength="77.8545" x="1136.3369" y="62.292">DemoApp2</text><rect fill="#E2E2F0" height="30.2969" rx="2.5" ry="2.5" style="stroke:#181818;stroke-width:0.5;" width="91.8545" x="1129.3369" y="743.1172"/><text fill="#000000" font-family="sans-serif" font-size="14" lengthAdjust="spacing" textLength="77.8545" x="1136.3369" y="763.1123">DemoApp2</text><g><title>Launch Manager</title><rect fill="#FFFFFF" height="523.9922" style="stroke:#181818;stroke-width:1;" width="10" x="611.8218" y="211.125"/></g><g><title>DemoApp1</title><rect fill="#FFFFFF" height="339.3281" style="stroke:#181818;stroke-width:1;" width="10" x="1068.4097" y="395.7891"/></g><g><title>DemoApp2</title><rect fill="#FFFFFF" height="251.9297" style="stroke:#181818;stroke-width:1;" width="10" x="1170.2642" y="483.1875"/></g><path d="M259,88.5938 L259,113.5938 L675,113.5938 L675,98.5938 L665,88.5938 L259,88.5938 " fill="#FEFFDD" style="stroke:#181818;stroke-width:0.5;"/><path d="M665,88.5938 L665,98.5938 L675,98.5938 L665,88.5938 " fill="#FEFFDD" style="stroke:#181818;stroke-width:0.5;"/><text fill="#000000" font-family="sans-serif" font-size="13" lengthAdjust="spacing" textLength="239.3003" x="342.9434" y="105.6606">Activating Run Target "DemoTarget"</text><polygon fill="#181818" points="307.3276,135.8594,317.3276,139.8594,307.3276,143.8594,311.3276,139.8594" style="stroke:#181818;stroke-width:1;"/><line style="stroke:#181818;stroke-width:1;" x1="34.1587" x2="313.3276" y1="139.8594" y2="139.8594"/><text fill="#000000" font-family="sans-serif" font-size="13" font-weight="bold" lengthAdjust="spacing" textLength="29.9736" x="41.1587" y="134.7935">[01]</text><text fill="#000000" font-family="sans-serif" font-size="13" lengthAdjust="spacing" textLength="227.1953" x="75.1323" y="134.7935">Activate Run Target "DemoTarget"</text><line style="stroke:#181818;stroke-width:1;" x1="319.3276" x2="361.3276" y1="168.9922" y2="168.9922"/><line style="stroke:#181818;stroke-width:1;" x1="361.3276" x2="361.3276" y1="168.9922" y2="181.9922"/><line style="stroke:#181818;stroke-width:1;" x1="320.3276" x2="361.3276" y1="181.9922" y2="181.9922"/><polygon fill="#181818" points="330.3276,177.9922,320.3276,181.9922,330.3276,185.9922,326.3276,181.9922" style="stroke:#181818;stroke-width:1;"/><text fill="#000000" font-family="sans-serif" font-size="13" font-weight="bold" lengthAdjust="spacing" textLength="29.9736" x="326.3276" y="163.9263">[02]</text><text fill="#000000" font-family="sans-serif" font-size="13" lengthAdjust="spacing" textLength="110.4048" x="360.3013" y="163.9263">evaluate request</text><polygon fill="#181818" points="599.8218,207.125,609.8218,211.125,599.8218,215.125,603.8218,211.125" style="stroke:#181818;stroke-width:1;"/><line style="stroke:#181818;stroke-width:1;" x1="319.3276" x2="605.8218" y1="211.125" y2="211.125"/><text fill="#000000" font-family="sans-serif" font-size="13" font-weight="bold" lengthAdjust="spacing" textLength="29.9736" x="326.3276" y="206.0591">[03]</text><text fill="#000000" font-family="sans-serif" font-size="13" lengthAdjust="spacing" textLength="230.4834" x="360.3013" y="206.0591">activate_run_target("DemoTarget")</text><line style="stroke:#181818;stroke-width:1;" x1="621.8218" x2="663.8218" y1="240.2578" y2="240.2578"/><line style="stroke:#181818;stroke-width:1;" x1="663.8218" x2="663.8218" y1="240.2578" y2="253.2578"/><line style="stroke:#181818;stroke-width:1;" x1="622.8218" x2="663.8218" y1="253.2578" y2="253.2578"/><polygon fill="#181818" points="632.8218,249.2578,622.8218,253.2578,632.8218,257.2578,628.8218,253.2578" style="stroke:#181818;stroke-width:1;"/><text fill="#000000" font-family="sans-serif" font-size="13" font-weight="bold" lengthAdjust="spacing" textLength="29.9736" x="628.8218" y="235.1919">[04]</text><text fill="#000000" font-family="sans-serif" font-size="13" lengthAdjust="spacing" textLength="170.6504" x="662.7954" y="235.1919">validate Run Target exists</text><line style="stroke:#181818;stroke-width:1;" x1="621.8218" x2="663.8218" y1="282.3906" y2="282.3906"/><line style="stroke:#181818;stroke-width:1;" x1="663.8218" x2="663.8218" y1="282.3906" y2="295.3906"/><line style="stroke:#181818;stroke-width:1;" x1="622.8218" x2="663.8218" y1="295.3906" y2="295.3906"/><polygon fill="#181818" points="632.8218,291.3906,622.8218,295.3906,632.8218,299.3906,628.8218,295.3906" style="stroke:#181818;stroke-width:1;"/><text fill="#000000" font-family="sans-serif" font-size="13" font-weight="bold" lengthAdjust="spacing" textLength="29.9736" x="628.8218" y="277.3247">[05]</text><text fill="#000000" font-family="sans-serif" font-size="13" lengthAdjust="spacing" textLength="201.3921" x="662.7954" y="277.3247">analyze current vs target state</text><line style="stroke:#181818;stroke-width:1;" x1="621.8218" x2="663.8218" y1="324.5234" y2="324.5234"/><line style="stroke:#181818;stroke-width:1;" x1="663.8218" x2="663.8218" y1="324.5234" y2="337.5234"/><line style="stroke:#181818;stroke-width:1;" x1="622.8218" x2="663.8218" y1="337.5234" y2="337.5234"/><polygon fill="#181818" points="632.8218,333.5234,622.8218,337.5234,632.8218,341.5234,628.8218,337.5234" style="stroke:#181818;stroke-width:1;"/><text fill="#000000" font-family="sans-serif" font-size="13" font-weight="bold" lengthAdjust="spacing" textLength="29.9736" x="628.8218" y="319.4575">[06]</text><text fill="#000000" font-family="sans-serif" font-size="13" lengthAdjust="spacing" textLength="203.2456" x="662.7954" y="319.4575">determine components to start</text><polygon fill="#181818" points="958.916,362.6563,968.916,366.6563,958.916,370.6563,962.916,366.6563" style="stroke:#181818;stroke-width:1;"/><line style="stroke:#181818;stroke-width:1;" x1="621.8218" x2="964.916" y1="366.6563" y2="366.6563"/><text fill="#000000" font-family="sans-serif" font-size="13" font-weight="bold" lengthAdjust="spacing" textLength="29.9736" x="628.8218" y="361.5903">[07]</text><text fill="#000000" font-family="sans-serif" font-size="13" lengthAdjust="spacing" textLength="118.2886" x="662.7954" y="361.5903">spawn DemoApp1</text><polygon fill="#181818" points="1056.4097,391.7891,1066.4097,395.7891,1056.4097,399.7891,1060.4097,395.7891" style="stroke:#181818;stroke-width:1;"/><line style="stroke:#181818;stroke-width:1;" x1="970.916" x2="1062.4097" y1="395.7891" y2="395.7891"/><text fill="#000000" font-family="sans-serif" font-size="13" font-weight="bold" lengthAdjust="spacing" textLength="29.9736" x="977.916" y="390.7231">[08]</text><text fill="#000000" font-family="sans-serif" font-size="13" lengthAdjust="spacing" textLength="41.8628" x="1011.8896" y="390.7231">spawn</text><polygon fill="#181818" points="632.8218,420.9219,622.8218,424.9219,632.8218,428.9219,628.8218,424.9219" style="stroke:#181818;stroke-width:1;"/><line style="stroke:#181818;stroke-width:1;stroke-dasharray:2.0,2.0;" x1="626.8218" x2="969.916" y1="424.9219" y2="424.9219"/><text fill="#000000" font-family="sans-serif" font-size="13" font-weight="bold" lengthAdjust="spacing" textLength="29.9736" x="638.8218" y="419.856">[09]</text><text fill="#000000" font-family="sans-serif" font-size="13" lengthAdjust="spacing" textLength="196.2505" x="672.7954" y="419.856">result of spawning DemoApp1</text><polygon fill="#181818" points="958.916,450.0547,968.916,454.0547,958.916,458.0547,962.916,454.0547" style="stroke:#181818;stroke-width:1;"/><line style="stroke:#181818;stroke-width:1;" x1="621.8218" x2="964.916" y1="454.0547" y2="454.0547"/><text fill="#000000" font-family="sans-serif" font-size="13" font-weight="bold" lengthAdjust="spacing" textLength="29.9736" x="628.8218" y="448.9888">[10]</text><text fill="#000000" font-family="sans-serif" font-size="13" lengthAdjust="spacing" textLength="118.2886" x="662.7954" y="448.9888">spawn DemoApp2</text><polygon fill="#181818" points="1158.2642,479.1875,1168.2642,483.1875,1158.2642,487.1875,1162.2642,483.1875" style="stroke:#181818;stroke-width:1;"/><line style="stroke:#181818;stroke-width:1;" x1="970.916" x2="1164.2642" y1="483.1875" y2="483.1875"/><text fill="#000000" font-family="sans-serif" font-size="13" font-weight="bold" lengthAdjust="spacing" textLength="29.9736" x="977.916" y="478.1216">[11]</text><text fill="#000000" font-family="sans-serif" font-size="13" lengthAdjust="spacing" textLength="41.8628" x="1011.8896" y="478.1216">spawn</text><polygon fill="#181818" points="632.8218,508.3203,622.8218,512.3203,632.8218,516.3203,628.8218,512.3203" style="stroke:#181818;stroke-width:1;"/><line style="stroke:#181818;stroke-width:1;stroke-dasharray:2.0,2.0;" x1="626.8218" x2="969.916" y1="512.3203" y2="512.3203"/><text fill="#000000" font-family="sans-serif" font-size="13" font-weight="bold" lengthAdjust="spacing" textLength="29.9736" x="638.8218" y="507.2544">[12]</text><text fill="#000000" font-family="sans-serif" font-size="13" lengthAdjust="spacing" textLength="196.2505" x="672.7954" y="507.2544">result of spawning DemoApp2</text><line style="stroke:#181818;stroke-width:1;" x1="621.8218" x2="663.8218" y1="541.4531" y2="541.4531"/><line style="stroke:#181818;stroke-width:1;" x1="663.8218" x2="663.8218" y1="541.4531" y2="554.4531"/><line style="stroke:#181818;stroke-width:1;" x1="622.8218" x2="663.8218" y1="554.4531" y2="554.4531"/><polygon fill="#181818" points="632.8218,550.4531,622.8218,554.4531,632.8218,558.4531,628.8218,554.4531" style="stroke:#181818;stroke-width:1;"/><text fill="#000000" font-family="sans-serif" font-size="13" font-weight="bold" lengthAdjust="spacing" textLength="29.9736" x="628.8218" y="536.3872">[13]</text><text fill="#000000" font-family="sans-serif" font-size="13" lengthAdjust="spacing" textLength="238.0879" x="662.7954" y="536.3872">wait for Run Target ready conditions</text><line style="stroke:#181818;stroke-width:1;" x1="1180.2642" x2="1222.2642" y1="583.5859" y2="583.5859"/><line style="stroke:#181818;stroke-width:1;" x1="1222.2642" x2="1222.2642" y1="583.5859" y2="596.5859"/><line style="stroke:#181818;stroke-width:1;" x1="1181.2642" x2="1222.2642" y1="596.5859" y2="596.5859"/><polygon fill="#181818" points="1191.2642,592.5859,1181.2642,596.5859,1191.2642,600.5859,1187.2642,596.5859" style="stroke:#181818;stroke-width:1;"/><text fill="#000000" font-family="sans-serif" font-size="13" font-weight="bold" lengthAdjust="spacing" textLength="29.9736" x="1187.2642" y="578.52">[14]</text><text fill="#000000" font-family="sans-serif" font-size="13" lengthAdjust="spacing" textLength="180.9844" x="1221.2378" y="578.52">register device /dev/Demo2</text><polygon fill="#181818" points="632.8218,621.7188,622.8218,625.7188,632.8218,629.7188,628.8218,625.7188" style="stroke:#181818;stroke-width:1;"/><line style="stroke:#181818;stroke-width:1;" x1="626.8218" x2="1169.2642" y1="625.7188" y2="625.7188"/><text fill="#000000" font-family="sans-serif" font-size="13" font-weight="bold" lengthAdjust="spacing" textLength="29.9736" x="638.8218" y="620.6528">[15]</text><text fill="#000000" font-family="sans-serif" font-size="13" lengthAdjust="spacing" textLength="189.103" x="672.7954" y="620.6528">signal ready via Lifecycle API</text><polygon fill="#181818" points="632.8218,650.8516,622.8218,654.8516,632.8218,658.8516,628.8218,654.8516" style="stroke:#181818;stroke-width:1;"/><line style="stroke:#181818;stroke-width:1;stroke-dasharray:2.0,2.0;" x1="626.8218" x2="969.916" y1="654.8516" y2="654.8516"/><text fill="#000000" font-family="sans-serif" font-size="13" font-weight="bold" lengthAdjust="spacing" textLength="29.9736" x="638.8218" y="649.7856">[16]</text><text fill="#000000" font-family="sans-serif" font-size="13" lengthAdjust="spacing" textLength="191.5596" x="672.7954" y="649.7856">event /dev/Demo2 registered</text><line style="stroke:#181818;stroke-width:1;" x1="621.8218" x2="663.8218" y1="683.9844" y2="683.9844"/><line style="stroke:#181818;stroke-width:1;" x1="663.8218" x2="663.8218" y1="683.9844" y2="696.9844"/><line style="stroke:#181818;stroke-width:1;" x1="622.8218" x2="663.8218" y1="696.9844" y2="696.9844"/><polygon fill="#181818" points="632.8218,692.9844,622.8218,696.9844,632.8218,700.9844,628.8218,696.9844" style="stroke:#181818;stroke-width:1;"/><text fill="#000000" font-family="sans-serif" font-size="13" font-weight="bold" lengthAdjust="spacing" textLength="29.9736" x="628.8218" y="678.9185">[17]</text><text fill="#000000" font-family="sans-serif" font-size="13" lengthAdjust="spacing" textLength="286.1206" x="662.7954" y="678.9185">verify Run Target "DemoTarget" fully active</text><polygon fill="#181818" points="330.3276,722.1172,320.3276,726.1172,330.3276,730.1172,326.3276,726.1172" style="stroke:#181818;stroke-width:1;"/><line style="stroke:#181818;stroke-width:1;stroke-dasharray:2.0,2.0;" x1="324.3276" x2="610.8218" y1="726.1172" y2="726.1172"/><text fill="#000000" font-family="sans-serif" font-size="13" font-weight="bold" lengthAdjust="spacing" textLength="29.9736" x="336.3276" y="721.0513">[18]</text><text fill="#000000" font-family="sans-serif" font-size="13" lengthAdjust="spacing" textLength="234.5205" x="370.3013" y="721.0513">Run Target "DemoTarget" activated</text><!--SRC=[ZPDDJ-Cm48Rl_XMZdbff4MoErGgfMYv8gHOHRWWXaqooeqtju8z0-FMCuwHDIhlY5CVppBpZrsD7haRuhPKpkePRvT2KCaUuW4tkg9KEuTuhU92cGWVB52kPToiXf7TQ-TqB6bZyUhb-lBfwMWZHIECefqOg1ui7j5nj0T92NCx3cGl5jrB9Qg2oxPn8fLVvtncI7Y5_CbZ-GwEmNlNnk9upDxZJcwRvsGFZpqaacIA944fpXxhbCsRR7woz7aqXLKrjwVFZcas8XuMBQyvQdxHnncVR4SLMrZwW1byz5nb2GLSELPwDLy-kprnEgwp4I0IBHBfFv99K7CdZErbd9n0RN7SV2Bat1jcFraBK01ikQK8Mo4VRaM9Mxngjc6PM1ywuKJTUmXfi8z_KmV6u7O1nQq0ElNzX1rc3rjSET1aJWlrxz7-YoLVHv9neydtHPEhmcoG7fJPJXmtAecEBL46EjB9YJ9mtOh2YVbOAR8aVtIL_BqCucIK45KiLNz9Gk2K9APMOTpa_titTxN7hs8PhF9JRAs4n6muqL7Rd9XDANzTT7Bqu0yESdkD7Hmln2G00]--></g></svg>