<svg xmlns="http://www.w3.org/2000/svg" xmlns:xlink="http://www.w3.org/1999/xlink" contentStyleType="text/css" data-diagram-type="SEQUENCE" height="598px" preserveAspectRatio="none" style="width:679px;height:598px;background:#FFFFFF;" version="1.1" viewBox="0 0 679 598" width="679px" zoomAndPan="magnify"><title>Launch Manager - Components Depends on Termination</title><defs/><g><text fill="#000000" font-family="sans-serif" font-size="14" font-weight="bold" lengthAdjust="spacing" textLength="443.7754" x="113.6208" y="27.9951">Launch Manager - Components Depends on Termination</text><g><title>Launch Manager</title><rect fill="#FFFFFF" height="441.5938" style="stroke:#FFFFFF;stroke-width:1;" width="10" x="65.2559" y="83.5938"/><line style="stroke:#181818;stroke-width:1;" x1="65.2559" x2="65.2559" y1="83.5938" y2="525.1875"/><line style="stroke:#181818;stroke-width:1;" x1="75.2559" x2="75.2559" y1="83.5938" y2="525.1875"/><line style="stroke:#181818;stroke-width:1;" x1="65.2559" x2="75.2559" y1="83.5938" y2="83.5938"/></g><g><title>Launch Manager</title><rect fill="#FFFFFF" height="1" style="stroke:#FFFFFF;stroke-width:1;" width="10" x="65.2559" y="553.1875"/><line style="stroke:#181818;stroke-width:1;" x1="65.2559" x2="65.2559" y1="553.1875" y2="554.1875"/><line style="stroke:#181818;stroke-width:1;" x1="75.2559" x2="75.2559" y1="553.1875" y2="554.1875"/></g><g><title>Reporting App 1</title><rect fill="#FFFFFF" height="177.6641" style="stroke:#181818;stroke-width:1;" width="10" x="460.2485" y="83.5938"/></g><g><title>Reporting App 2</title><rect fill="#FFFFFF" height="349.3281" style="stroke:#181818;stroke-width:1;" width="10" x="598.0942" y="83.5938"/></g><g><title>Launch Manager</title><rect fill="transparent" height="451.5938" width="8" x="66.2559" y="73.5938"/><line style="stroke:#181818;stroke-width:0.5;stroke-dasharray:5.0,5.0;" x1="70" x2="70" y1="73.5938" y2="525.1875"/></g><line style="stroke:#A80036;stroke-width:1;stroke-dasharray:1.0,4.0;" x1="70" x2="70" y1="525.1875" y2="553.1875"/><g><title>Launch Manager</title><rect fill="transparent" height="10" width="8" x="66.2559" y="553.1875"/><line style="stroke:#181818;stroke-width:0.5;stroke-dasharray:5.0,5.0;" x1="70" x2="70" y1="553.1875" y2="563.1875"/></g><g><title>OS (kernel)</title><rect fill="transparent" height="451.5938" width="8" x="315.4761" y="73.5938"/><line style="stroke:#181818;stroke-width:0.5;stroke-dasharray:5.0,5.0;" x1="318.9097" x2="318.9097" y1="73.5938" y2="525.1875"/></g><line style="stroke:#A80036;stroke-width:1;stroke-dasharray:1.0,4.0;" x1="318.9097" x2="318.9097" y1="525.1875" y2="553.1875"/><g><title>OS (kernel)</title><rect fill="transparent" height="10" width="8" x="315.4761" y="553.1875"/><line style="stroke:#181818;stroke-width:0.5;stroke-dasharray:5.0,5.0;" x1="318.9097" x2="318.9097" y1="553.1875" y2="563.1875"/></g><g><title>Reporting App 1</title><rect fill="transparent" height="451.5938" width="8" x="461.2485" y="73.5938"/><line style="stroke:#181818;stroke-width:0.5;stroke-dasharray:5.0,5.0;" x1="464.3257" x2="464.3257" y1="73.5938" y2="525.1875"/></g><line style="stroke:#A80036;stroke-width:1;stroke-dasharray:1.0,4.0;" x1="464.3257" x2="464.3257" y1="525.1875" y2="553.1875"/><g><title>Reporting App 1</title><rect fill="transparent" height="10" width="8" x="461.2485" y="553.1875"/><line style="stroke:#181818;stroke-width:0.5;stroke-dasharray:5.0,5.0;" x1="464.3257" x2="464.3257" y1="553.1875" y2="563.1875"/></g><g><title>Reporting App 2</title><rect fill="transparent" height="451.5938" width="8" x="599.0942" y="73.5938"/><line style="stroke:#181818;stroke-width:0.5;stroke-dasharray:5.0,5.0;" x1="602.1714" x2="602.1714" y1="73.5938" y2="525.1875"/></g><line style="stroke:#A80036;stroke-width:1;stroke-dasharray:1.0,4.0;" x1="602.1714" x2="602.1714" y1="525.1875" y2="553.1875"/><g><title>Reporting App 2</title><rect fill="transparent" height="10" width="8" x="599.0942" y="553.1875"/><line style="stroke:#181818;stroke-width:0.5;stroke-dasharray:5.0,5.0;" x1="602.1714" x2="602.1714" y1="553.1875" y2="563.1875"/></g><rect fill="#E2E2F0" height="30.2969" rx="2.5" ry="2.5" style="stroke:#181818;stroke-width:0.5;" width="130.5117" x="5" y="42.2969"/><text fill="#000000" font-family="sans-serif" font-size="14" lengthAdjust="spacing" textLength="116.5117" x="12" y="62.292">Launch Manager</text><rect fill="#E2E2F0" height="30.2969" rx="2.5" ry="2.5" style="stroke:#181818;stroke-width:0.5;" width="130.5117" x="5" y="562.1875"/><text fill="#000000" font-family="sans-serif" font-size="14" lengthAdjust="spacing" textLength="116.5117" x="12" y="582.1826">Launch Manager</text><rect fill="#E2E2F0" height="30.2969" rx="2.5" ry="2.5" style="stroke:#181818;stroke-width:0.5;" width="93.1328" x="272.9097" y="42.2969"/><text fill="#000000" font-family="sans-serif" font-size="14" lengthAdjust="spacing" textLength="79.1328" x="279.9097" y="62.292">OS (kernel)</text><rect fill="#E2E2F0" height="30.2969" rx="2.5" ry="2.5" style="stroke:#181818;stroke-width:0.5;" width="93.1328" x="272.9097" y="562.1875"/><text fill="#000000" font-family="sans-serif" font-size="14" lengthAdjust="spacing" textLength="79.1328" x="279.9097" y="582.1826">OS (kernel)</text><rect fill="#E2E2F0" height="30.2969" rx="2.5" ry="2.5" style="stroke:#181818;stroke-width:0.5;" width="127.8457" x="401.3257" y="42.2969"/><text fill="#000000" font-family="sans-serif" font-size="14" lengthAdjust="spacing" textLength="113.8457" x="408.3257" y="62.292">Reporting App 1</text><rect fill="#E2E2F0" height="30.2969" rx="2.5" ry="2.5" style="stroke:#181818;stroke-width:0.5;" width="127.8457" x="401.3257" y="562.1875"/><text fill="#000000" font-family="sans-serif" font-size="14" lengthAdjust="spacing" textLength="113.8457" x="408.3257" y="582.1826">Reporting App 1</text><rect fill="#E2E2F0" height="30.2969" rx="2.5" ry="2.5" style="stroke:#181818;stroke-width:0.5;" width="127.8457" x="539.1714" y="42.2969"/><text fill="#000000" font-family="sans-serif" font-size="14" lengthAdjust="spacing" textLength="113.8457" x="546.1714" y="62.292">Reporting App 2</text><rect fill="#E2E2F0" height="30.2969" rx="2.5" ry="2.5" style="stroke:#181818;stroke-width:0.5;" width="127.8457" x="539.1714" y="562.1875"/><text fill="#000000" font-family="sans-serif" font-size="14" lengthAdjust="spacing" textLength="113.8457" x="546.1714" y="582.1826">Reporting App 2</text><g><title>Launch Manager</title><rect fill="#FFFFFF" height="441.5938" style="stroke:#FFFFFF;stroke-width:1;" width="10" x="65.2559" y="83.5938"/><line style="stroke:#181818;stroke-width:1;" x1="65.2559" x2="65.2559" y1="83.5938" y2="525.1875"/><line style="stroke:#181818;stroke-width:1;" x1="75.2559" x2="75.2559" y1="83.5938" y2="525.1875"/><line style="stroke:#181818;stroke-width:1;" x1="65.2559" x2="75.2559" y1="83.5938" y2="83.5938"/></g><g><title>Launch Manager</title><rect fill="#FFFFFF" height="1" style="stroke:#FFFFFF;stroke-width:1;" width="10" x="65.2559" y="553.1875"/><line style="stroke:#181818;stroke-width:1;" x1="65.2559" x2="65.2559" y1="553.1875" y2="554.1875"/><line style="stroke:#181818;stroke-width:1;" x1="75.2559" x2="75.2559" y1="553.1875" y2="554.1875"/></g><g><title>Reporting App 1</title><rect fill="#FFFFFF" height="177.6641" style="stroke:#181818;stroke-width:1;" width="10" x="460.2485" y="83.5938"/></g><g><title>Reporting App 2</title><rect fill="#FFFFFF" height="349.3281" style="stroke:#181818;stroke-width:1;" width="10" x="598.0942" y="83.5938"/></g><rect fill="#EEEEEE" height="3" style="stroke:#EEEEEE;stroke-width:1;" width="672.0171" x="0" y="104.1602"/><line style="stroke:#000000;stroke-width:1;" x1="0" x2="672.0171" y1="104.1602" y2="104.1602"/><line style="stroke:#000000;stroke-width:1;" x1="0" x2="672.0171" y1="107.1602" y2="107.1602"/><rect fill="#EEEEEE" height="23.1328" style="stroke:#000000;stroke-width:2;" width="153.4897" x="259.2637" y="93.5938"/><text fill="#000000" font-family="sans-serif" font-size="13" font-weight="bold" lengthAdjust="spacing" textLength="134.9639" x="265.2637" y="109.6606">Switch Run Target</text><line style="stroke:#181818;stroke-width:1;" x1="75.2559" x2="117.2559" y1="147.8594" y2="147.8594"/><line style="stroke:#181818;stroke-width:1;" x1="117.2559" x2="117.2559" y1="147.8594" y2="160.8594"/><line style="stroke:#181818;stroke-width:1;" x1="76.2559" x2="117.2559" y1="160.8594" y2="160.8594"/><polygon fill="#181818" points="86.2559,156.8594,76.2559,160.8594,86.2559,164.8594,82.2559,160.8594" style="stroke:#181818;stroke-width:1;"/><text fill="#000000" font-family="sans-serif" font-size="13" font-weight="bold" lengthAdjust="spacing" textLength="29.9736" x="82.2559" y="142.7935">[01]</text><text fill="#000000" font-family="sans-serif" font-size="13" lengthAdjust="spacing" textLength="143.9648" x="116.2295" y="142.7935">Analyze current state.</text><line style="stroke:#181818;stroke-width:1;" x1="75.2559" x2="117.2559" y1="189.9922" y2="189.9922"/><line style="stroke:#181818;stroke-width:1;" x1="117.2559" x2="117.2559" y1="189.9922" y2="202.9922"/><line style="stroke:#181818;stroke-width:1;" x1="76.2559" x2="117.2559" y1="202.9922" y2="202.9922"/><polygon fill="#181818" points="86.2559,198.9922,76.2559,202.9922,86.2559,206.9922,82.2559,202.9922" style="stroke:#181818;stroke-width:1;"/><text fill="#000000" font-family="sans-serif" font-size="13" font-weight="bold" lengthAdjust="spacing" textLength="29.9736" x="82.2559" y="184.9263">[02]</text><text fill="#000000" font-family="sans-serif" font-size="13" lengthAdjust="spacing" textLength="171.3613" x="116.2295" y="184.9263">Determine transition plan.</text><polygon fill="#181818" points="448.2485,228.125,458.2485,232.125,448.2485,236.125,452.2485,232.125" style="stroke:#181818;stroke-width:1;"/><line style="stroke:#181818;stroke-width:1;" x1="75.2559" x2="454.2485" y1="232.125" y2="232.125"/><text fill="#000000" font-family="sans-serif" font-size="13" font-weight="bold" lengthAdjust="spacing" textLength="29.9736" x="82.2559" y="227.0591">[03]</text><text fill="#000000" font-family="sans-serif" font-size="13" lengthAdjust="spacing" textLength="58.5635" x="116.2295" y="227.0591">SIGTERM</text><polygon fill="#181818" points="330.4761,257.2578,320.4761,261.2578,330.4761,265.2578,326.4761,261.2578" style="stroke:#181818;stroke-width:1;"/><line style="stroke:#181818;stroke-width:1;" x1="324.4761" x2="464.2485" y1="261.2578" y2="261.2578"/><text fill="#000000" font-family="sans-serif" font-size="13" font-weight="bold" lengthAdjust="spacing" textLength="29.9736" x="336.4761" y="256.1919">[04]</text><text fill="#000000" font-family="sans-serif" font-size="13" lengthAdjust="spacing" textLength="82.7988" x="370.4497" y="256.1919">Termination.</text><line style="stroke:#A80036;stroke-width:2;" x1="456.2485" x2="474.2485" y1="252.2578" y2="270.2578"/><line style="stroke:#A80036;stroke-width:2;" x1="456.2485" x2="474.2485" y1="270.2578" y2="252.2578"/><line style="stroke:#A80036;stroke-width:2;" x1="456.2485" x2="474.2485" y1="252.2578" y2="270.2578"/><line style="stroke:#A80036;stroke-width:2;" x1="456.2485" x2="474.2485" y1="270.2578" y2="252.2578"/><polygon fill="#181818" points="86.2559,286.3906,76.2559,290.3906,86.2559,294.3906,82.2559,290.3906" style="stroke:#181818;stroke-width:1;"/><line style="stroke:#181818;stroke-width:1;" x1="80.2559" x2="318.4761" y1="290.3906" y2="290.3906"/><text fill="#000000" font-family="sans-serif" font-size="13" font-weight="bold" lengthAdjust="spacing" textLength="29.9736" x="92.2559" y="285.3247">[05]</text><text fill="#000000" font-family="sans-serif" font-size="13" lengthAdjust="spacing" textLength="186.2466" x="126.2295" y="285.3247">Reporting App 1 terminated.</text><line style="stroke:#181818;stroke-width:1;" x1="75.2559" x2="117.2559" y1="319.5234" y2="319.5234"/><line style="stroke:#181818;stroke-width:1;" x1="117.2559" x2="117.2559" y1="319.5234" y2="332.5234"/><line style="stroke:#181818;stroke-width:1;" x1="76.2559" x2="117.2559" y1="332.5234" y2="332.5234"/><polygon fill="#181818" points="86.2559,328.5234,76.2559,332.5234,86.2559,336.5234,82.2559,332.5234" style="stroke:#181818;stroke-width:1;"/><text fill="#000000" font-family="sans-serif" font-size="13" font-weight="bold" lengthAdjust="spacing" textLength="29.9736" x="82.2559" y="314.4575">[06]</text><text fill="#000000" font-family="sans-serif" font-size="13" lengthAdjust="spacing" textLength="143.9648" x="116.2295" y="314.4575">Analyze current state.</text><line style="stroke:#181818;stroke-width:1;" x1="75.2559" x2="117.2559" y1="361.6563" y2="361.6563"/><line style="stroke:#181818;stroke-width:1;" x1="117.2559" x2="117.2559" y1="361.6563" y2="374.6563"/><line style="stroke:#181818;stroke-width:1;" x1="76.2559" x2="117.2559" y1="374.6563" y2="374.6563"/><polygon fill="#181818" points="86.2559,370.6563,76.2559,374.6563,86.2559,378.6563,82.2559,374.6563" style="stroke:#181818;stroke-width:1;"/><text fill="#000000" font-family="sans-serif" font-size="13" font-weight="bold" lengthAdjust="spacing" textLength="29.9736" x="82.2559" y="356.5903">[07]</text><text fill="#000000" font-family="sans-serif" font-size="13" lengthAdjust="spacing" textLength="171.3613" x="116.2295" y="356.5903">Determine transition plan.</text><polygon fill="#181818" points="586.0942,399.7891,596.0942,403.7891,586.0942,407.7891,590.0942,403.7891" style="stroke:#181818;stroke-width:1;"/><line style="stroke:#181818;stroke-width:1;" x1="75.2559" x2="592.0942" y1="403.7891" y2="403.7891"/><text fill="#000000" font-family="sans-serif" font-size="13" font-weight="bold" lengthAdjust="spacing" textLength="29.9736" x="82.2559" y="398.7231">[08]</text><text fill="#000000" font-family="sans-serif" font-size="13" lengthAdjust="spacing" textLength="58.5635" x="116.2295" y="398.7231">SIGTERM</text><polygon fill="#181818" points="591.0942,428.9219,601.0942,432.9219,591.0942,436.9219,595.0942,432.9219" style="stroke:#181818;stroke-width:1;"/><line style="stroke:#181818;stroke-width:1;" x1="319.4761" x2="597.0942" y1="432.9219" y2="432.9219"/><text fill="#000000" font-family="sans-serif" font-size="13" font-weight="bold" lengthAdjust="spacing" textLength="29.9736" x="326.4761" y="427.856">[09]</text><text fill="#000000" font-family="sans-serif" font-size="13" lengthAdjust="spacing" textLength="82.7988" x="360.4497" y="427.856">Termination.</text><line style="stroke:#A80036;stroke-width:2;" x1="594.0942" x2="612.0942" y1="423.9219" y2="441.9219"/><line style="stroke:#A80036;stroke-width:2;" x1="594.0942" x2="612.0942" y1="441.9219" y2="423.9219"/><line style="stroke:#181818;stroke-width:1;" x1="75.2559" x2="117.2559" y1="462.0547" y2="462.0547"/><line style="stroke:#181818;stroke-width:1;" x1="117.2559" x2="117.2559" y1="462.0547" y2="475.0547"/><line style="stroke:#181818;stroke-width:1;" x1="76.2559" x2="117.2559" y1="475.0547" y2="475.0547"/><polygon fill="#181818" points="86.2559,471.0547,76.2559,475.0547,86.2559,479.0547,82.2559,475.0547" style="stroke:#181818;stroke-width:1;"/><text fill="#000000" font-family="sans-serif" font-size="13" font-weight="bold" lengthAdjust="spacing" textLength="29.9736" x="82.2559" y="456.9888">[10]</text><text fill="#000000" font-family="sans-serif" font-size="13" lengthAdjust="spacing" textLength="143.9648" x="116.2295" y="456.9888">Analyze current state.</text><line style="stroke:#181818;stroke-width:1;" x1="75.2559" x2="117.2559" y1="504.1875" y2="504.1875"/><line style="stroke:#181818;stroke-width:1;" x1="117.2559" x2="117.2559" y1="504.1875" y2="517.1875"/><line style="stroke:#181818;stroke-width:1;" x1="76.2559" x2="117.2559" y1="517.1875" y2="517.1875"/><polygon fill="#181818" points="86.2559,513.1875,76.2559,517.1875,86.2559,521.1875,82.2559,517.1875" style="stroke:#181818;stroke-width:1;"/><text fill="#000000" font-family="sans-serif" font-size="13" font-weight="bold" lengthAdjust="spacing" textLength="29.9736" x="82.2559" y="499.1216">[11]</text><text fill="#000000" font-family="sans-serif" font-size="13" lengthAdjust="spacing" textLength="171.3613" x="116.2295" y="499.1216">Determine transition plan.</text><!--SRC=[hL31IiD04BtlLmmvwQ5BcsCmXM95X0IXxKqyJDCXBYQposQYrAztanZR2FRKsxpTDs_UUsAa8iYmvU8DScGioSCCxctjB1DB0sjon8S6BCEEV6qOnLXM2bkntDRxm8_kzikN-VmrKigX5rCOXomGJMKZm0QoV4fvtiBDEtccwhR_7-OfPqFE1iWbh9o3HSz3vnQNMF78YXKMOZvGgBlzE_VxvoXMAarX-saaEDwq8IpwaWJILAaiXzaoh2UmOgoENmH5wtre1ne9w_gCi2RfIo8GZzoOhYjm5R8UPRhB2MoV7dSFcs0eeEvro9sSLwpLWHhnzZYOdQA1Frxzqn38ZmeTEf5fwAkdYKzfJgw6z__InDToeRN-1W00]--></g></svg>